<?xml version="1.0" encoding="UTF-8"?>
<svg xmlns="http://www.w3.org/2000/svg" xmlns:xlink="http://www.w3.org/1999/xlink" width="609.9" height="353.4" viewBox="636.03 354.31 609.94 353.39">
<path fill-rule="nonzero" fill="currentColor" fill-opacity="1" d="M 1227.40625 434.351562 L 1227.40625 627.648438 C 1227.40625 654.566406 1205.507812 676.46875 1178.585938 676.46875 L 703.414062 676.46875 C 676.492188 676.46875 654.59375 654.566406 654.59375 627.648438 L 654.59375 434.351562 C 654.59375 407.433594 676.492188 385.53125 703.414062 385.53125 L 1178.585938 385.53125 C 1205.507812 385.53125 1227.40625 407.433594 1227.40625 434.351562 M 1176.929688 366.035156 L 705.070312 366.035156 C 673.46875 366.035156 647.757812 391.746094 647.757812 423.347656 L 647.757812 638.652344 C 647.757812 670.253906 673.46875 695.964844 705.070312 695.964844 L 1176.929688 695.964844 C 1208.53125 695.964844 1234.242188 670.253906 1234.242188 638.652344 L 1234.242188 423.347656 C 1234.242188 391.746094 1208.53125 366.035156 1176.929688 366.035156 "/>
<path fill-rule="nonzero" fill="currentColor" fill-opacity="1" d="M 1158.789062 460.0625 L 1158.789062 601.9375 C 1158.789062 622.519531 1142.042969 639.261719 1121.460938 639.261719 L 760.539062 639.261719 C 739.957031 639.261719 723.214844 622.519531 723.214844 601.9375 L 723.214844 460.0625 C 723.214844 439.480469 739.957031 422.738281 760.539062 422.738281 L 1121.460938 422.738281 C 1142.042969 422.738281 1158.789062 439.480469 1158.789062 460.0625 M 1119.804688 403.242188 L 762.195312 403.242188 C 736.933594 403.242188 716.378906 423.796875 716.378906 449.058594 L 716.378906 612.941406 C 716.378906 638.203125 736.933594 658.757812 762.195312 658.757812 L 1119.804688 658.757812 C 1145.070312 658.757812 1165.621094 638.203125 1165.621094 612.941406 L 1165.621094 449.058594 C 1165.621094 423.796875 1145.070312 403.242188 1119.804688 403.242188 "/>
<path fill-rule="nonzero" fill="currentColor" fill-opacity="1" d="M 1090.222656 485.773438 L 1090.222656 576.230469 C 1090.222656 590.46875 1078.636719 602.054688 1064.398438 602.054688 L 817.679688 602.054688 C 803.4375 602.054688 791.851562 590.46875 791.851562 576.230469 L 791.851562 485.773438 C 791.851562 471.53125 803.4375 459.945312 817.679688 459.945312 L 1064.398438 459.945312 C 1078.636719 459.945312 1090.222656 471.53125 1090.222656 485.773438 M 1062.742188 440.449219 L 819.335938 440.449219 C 800.410156 440.449219 785.015625 455.84375 785.015625 474.769531 L 785.015625 587.234375 C 785.015625 606.15625 800.410156 621.550781 819.335938 621.550781 L 1062.742188 621.550781 C 1081.664062 621.550781 1097.058594 606.15625 1097.058594 587.234375 L 1097.058594 474.769531 C 1097.058594 455.84375 1081.664062 440.449219 1062.742188 440.449219 "/>
<path fill-rule="nonzero" fill="currentColor" fill-opacity="1" d="M 1007.273438 564.808594 L 874.800781 564.808594 C 866.898438 564.808594 860.472656 558.378906 860.472656 550.480469 L 860.472656 511.507812 C 860.472656 503.609375 866.898438 497.183594 874.800781 497.183594 L 1007.273438 497.183594 C 1015.175781 497.183594 1021.601562 503.609375 1021.601562 511.507812 L 1021.601562 550.480469 C 1021.601562 558.378906 1015.175781 564.808594 1007.273438 564.808594 M 1005.617188 477.6875 L 876.457031 477.6875 C 863.875 477.6875 853.636719 487.921875 853.636719 500.503906 L 853.636719 561.484375 C 853.636719 574.066406 863.875 584.304688 876.457031 584.304688 L 1005.617188 584.304688 C 1018.199219 584.304688 1028.4375 574.066406 1028.4375 561.484375 L 1028.4375 500.503906 C 1028.4375 487.921875 1018.199219 477.6875 1005.617188 477.6875 "/>
</svg>
