<?xml version="1.0" encoding="UTF-8"?>
<svg xmlns="http://www.w3.org/2000/svg" xmlns:xlink="http://www.w3.org/1999/xlink" width="613.5" height="372.6" viewBox="656.24 352.69 613.53 372.61">
<path fill-rule="nonzero" fill="currentColor" fill-opacity="1" d="M 1187.816406 417.355469 L 1187.816406 566.917969 C 1187.816406 587.746094 1170.871094 604.695312 1150.042969 604.695312 L 782.378906 604.695312 C 761.546875 604.695312 744.597656 587.746094 744.597656 566.917969 L 744.597656 417.355469 C 744.597656 396.523438 761.546875 379.578125 782.378906 379.578125 L 1150.042969 379.578125 C 1170.871094 379.578125 1187.816406 396.523438 1187.816406 417.355469 M 1148.757812 364.492188 L 783.660156 364.492188 C 759.207031 364.492188 739.3125 384.386719 739.3125 408.839844 L 739.3125 575.433594 C 739.3125 599.882812 759.207031 619.777344 783.660156 619.777344 L 1148.757812 619.777344 C 1173.210938 619.777344 1193.105469 599.882812 1193.105469 575.433594 L 1193.105469 408.839844 C 1193.105469 384.386719 1173.210938 364.492188 1148.757812 364.492188 "/>
<path fill-rule="nonzero" fill="currentColor" fill-opacity="1" d="M 1134.722656 437.246094 L 1134.722656 547.023438 C 1134.722656 562.949219 1121.765625 575.902344 1105.84375 575.902344 L 826.574219 575.902344 C 810.652344 575.902344 797.695312 562.949219 797.695312 547.023438 L 797.695312 437.246094 C 797.695312 421.324219 810.652344 408.367188 826.574219 408.367188 L 1105.84375 408.367188 C 1121.765625 408.367188 1134.722656 421.324219 1134.722656 437.246094 M 1104.558594 393.28125 L 827.859375 393.28125 C 808.3125 393.28125 792.40625 409.1875 792.40625 428.734375 L 792.40625 555.539062 C 792.40625 575.085938 808.3125 590.988281 827.859375 590.988281 L 1104.558594 590.988281 C 1124.109375 590.988281 1140.011719 575.085938 1140.011719 555.539062 L 1140.011719 428.734375 C 1140.011719 409.1875 1124.109375 393.28125 1104.558594 393.28125 "/>
<path fill-rule="nonzero" fill="currentColor" fill-opacity="1" d="M 1081.671875 457.140625 L 1081.671875 527.132812 C 1081.671875 538.152344 1072.707031 547.113281 1061.6875 547.113281 L 870.789062 547.113281 C 859.769531 547.113281 850.804688 538.152344 850.804688 527.132812 L 850.804688 457.140625 C 850.804688 446.121094 859.769531 437.15625 870.789062 437.15625 L 1061.6875 437.15625 C 1072.707031 437.15625 1081.671875 446.121094 1081.671875 457.140625 M 1060.40625 422.070312 L 872.070312 422.070312 C 857.429688 422.070312 845.515625 433.984375 845.515625 448.625 L 845.515625 535.648438 C 845.515625 550.289062 857.429688 562.199219 872.070312 562.199219 L 1060.40625 562.199219 C 1075.046875 562.199219 1086.960938 550.289062 1086.960938 535.648438 L 1086.960938 448.625 C 1086.960938 433.984375 1075.046875 422.070312 1060.40625 422.070312 "/>
<path fill-rule="nonzero" fill="currentColor" fill-opacity="1" d="M 1017.488281 518.292969 L 914.984375 518.292969 C 908.875 518.292969 903.898438 513.320312 903.898438 507.207031 L 903.898438 477.054688 C 903.898438 470.941406 908.875 465.96875 914.984375 465.96875 L 1017.488281 465.96875 C 1023.601562 465.96875 1028.578125 470.941406 1028.578125 477.054688 L 1028.578125 507.207031 C 1028.578125 513.320312 1023.601562 518.292969 1017.488281 518.292969 M 1016.207031 450.882812 L 916.269531 450.882812 C 906.53125 450.882812 898.613281 458.804688 898.613281 468.539062 L 898.613281 515.722656 C 898.613281 525.457031 906.53125 533.378906 916.269531 533.378906 L 1016.207031 533.378906 C 1025.941406 533.378906 1033.863281 525.457031 1033.863281 515.722656 L 1033.863281 468.539062 C 1033.863281 458.804688 1025.941406 450.882812 1016.207031 450.882812 "/>
<path fill-rule="nonzero" fill="currentColor" fill-opacity="1" d="M 668.035156 666.582031 L 668.035156 672.671875 L 685.980469 672.671875 C 687.738281 672.671875 689.175781 674.113281 689.175781 675.871094 L 689.175781 713.496094 L 712.027344 713.496094 L 712.027344 675.871094 C 712.027344 674.113281 713.464844 672.671875 715.222656 672.671875 L 732.917969 672.671875 L 732.917969 666.582031 Z M 668.035156 666.582031 "/>
<path fill-rule="nonzero" fill="currentColor" fill-opacity="1" d="M 808.421875 666.585938 L 786.089844 666.585938 L 786.089844 683.867188 C 786.089844 685.625 784.652344 687.0625 782.890625 687.0625 L 764.882812 687.0625 C 763.125 687.0625 761.683594 685.625 761.683594 683.867188 L 761.683594 666.585938 L 739.351562 666.585938 L 739.351562 713.496094 L 761.683594 713.496094 L 761.683594 696.3125 C 761.683594 694.554688 763.125 693.117188 764.882812 693.117188 L 782.890625 693.117188 C 784.652344 693.117188 786.089844 694.554688 786.089844 696.3125 L 786.089844 713.496094 L 808.421875 713.496094 Z M 808.421875 666.585938 "/>
<path fill-rule="nonzero" fill="currentColor" fill-opacity="1" d="M 838.691406 704.257812 L 838.691406 696.222656 C 838.691406 694.464844 840.128906 693.027344 841.886719 693.027344 L 870.769531 693.027344 L 870.769531 686.972656 L 841.886719 686.972656 C 840.128906 686.972656 838.691406 685.53125 838.691406 683.773438 L 838.691406 675.851562 C 838.691406 674.09375 840.128906 672.65625 841.886719 672.65625 L 874.585938 672.65625 L 874.585938 666.597656 L 816.355469 666.574219 L 816.355469 713.496094 L 874.585938 713.507812 L 874.585938 707.453125 L 841.886719 707.453125 C 840.128906 707.453125 838.691406 706.015625 838.691406 704.257812 "/>
<path fill-rule="nonzero" fill="currentColor" fill-opacity="1" d="M 1069.496094 704.246094 L 1069.496094 696.222656 C 1069.496094 694.464844 1070.9375 693.027344 1072.695312 693.027344 L 1101.578125 693.027344 L 1101.578125 686.972656 L 1072.695312 686.972656 C 1070.9375 686.972656 1069.496094 685.53125 1069.496094 683.773438 L 1069.496094 675.851562 C 1069.496094 674.09375 1070.9375 672.65625 1072.695312 672.65625 L 1105.394531 672.65625 L 1105.394531 666.597656 L 1047.164062 666.574219 L 1047.164062 713.484375 L 1105.394531 713.496094 L 1105.394531 707.445312 L 1072.695312 707.445312 C 1070.9375 707.445312 1069.496094 706.003906 1069.496094 704.246094 "/>
<path fill-rule="nonzero" fill="currentColor" fill-opacity="1" d="M 939.667969 696.265625 L 933.074219 696.265625 C 931.316406 696.265625 930.597656 695.019531 931.476562 693.496094 L 941.265625 676.539062 C 942.144531 675.015625 942.867188 675.210938 942.867188 676.96875 L 942.867188 693.066406 C 942.867188 694.828125 941.425781 696.265625 939.667969 696.265625 M 921.210938 666.578125 L 894.132812 713.496094 L 919.957031 713.496094 L 924.78125 705.089844 C 925.664062 703.566406 927.363281 702.320312 929.582031 702.320312 L 939.667969 702.320312 C 941.425781 702.320312 942.867188 703.757812 942.867188 705.515625 L 942.867188 713.496094 L 965.199219 713.496094 L 965.199219 666.578125 Z M 921.210938 666.578125 "/>
<path fill-rule="nonzero" fill="currentColor" fill-opacity="1" d="M 1232.433594 696.265625 L 1225.839844 696.265625 C 1224.082031 696.265625 1223.363281 695.019531 1224.242188 693.496094 L 1234.03125 676.539062 C 1234.910156 675.015625 1235.628906 675.210938 1235.628906 676.96875 L 1235.628906 693.066406 C 1235.628906 694.828125 1234.191406 696.265625 1232.433594 696.265625 M 1213.972656 666.578125 L 1186.898438 713.496094 L 1212.71875 713.496094 L 1217.546875 705.089844 C 1218.425781 703.566406 1220.128906 702.320312 1222.34375 702.320312 L 1232.433594 702.320312 C 1234.191406 702.320312 1235.628906 703.757812 1235.628906 705.515625 L 1235.628906 713.496094 L 1257.964844 713.496094 L 1257.964844 666.578125 Z M 1213.972656 666.578125 "/>
<path fill-rule="nonzero" fill="currentColor" fill-opacity="1" d="M 1160.542969 702.847656 C 1160.542969 704.605469 1159.824219 704.796875 1158.945312 703.273438 L 1139.394531 669.371094 C 1138.515625 667.847656 1136.355469 666.597656 1134.597656 666.59375 L 1111.742188 666.578125 L 1111.742188 713.496094 L 1134.074219 713.496094 L 1134.074219 676.910156 C 1134.074219 675.152344 1134.792969 674.960938 1135.675781 676.480469 L 1155.421875 710.726562 C 1156.300781 712.25 1158.457031 713.496094 1160.21875 713.496094 L 1182.878906 713.496094 L 1182.878906 666.578125 L 1160.542969 666.578125 Z M 1160.542969 702.847656 "/>
<path fill-rule="nonzero" fill="currentColor" fill-opacity="1" d="M 1029.714844 695.335938 C 1028.660156 693.929688 1028.644531 691.613281 1029.679688 690.191406 L 1036.441406 680.894531 C 1037.476562 679.46875 1037.476562 677.144531 1036.441406 675.722656 L 1031.726562 669.238281 C 1030.691406 667.816406 1028.777344 666.644531 1026.648438 666.644531 L 973.488281 666.574219 L 973.488281 713.492188 L 995.820312 713.492188 L 995.820312 675.867188 C 995.820312 674.109375 997.261719 672.667969 999.019531 672.667969 L 1011.617188 672.667969 C 1013.375 672.667969 1013.964844 673.832031 1012.933594 675.253906 L 1001.9375 690.375 C 1000.902344 691.796875 1000.917969 694.113281 1001.96875 695.523438 L 1015.425781 713.492188 L 1043.308594 713.492188 Z M 1029.714844 695.335938 "/>
</svg>
