<?xml version="1.0" encoding="UTF-8"?>
<svg xmlns="http://www.w3.org/2000/svg" xmlns:xlink="http://www.w3.org/1999/xlink" width="1159.0" height="122.8" viewBox="383.52 477.60 1158.95 122.81">
<path fill-rule="nonzero" fill="currentColor" fill-opacity="1" d="M 405.8125 499.890625 L 405.8125 510.046875 L 435.726562 510.046875 C 438.65625 510.046875 441.054688 512.445312 441.054688 515.378906 L 441.054688 578.097656 L 479.144531 578.097656 L 479.144531 515.378906 C 479.144531 512.445312 481.546875 510.046875 484.476562 510.046875 L 513.976562 510.046875 L 513.976562 499.890625 Z M 405.8125 499.890625 "/>
<path fill-rule="nonzero" fill="currentColor" fill-opacity="1" d="M 639.847656 499.898438 L 602.613281 499.898438 L 602.613281 528.707031 C 602.613281 531.636719 600.214844 534.035156 597.285156 534.035156 L 567.261719 534.035156 C 564.332031 534.035156 561.933594 531.636719 561.933594 528.707031 L 561.933594 499.898438 L 524.699219 499.898438 L 524.699219 578.101562 L 561.933594 578.101562 L 561.933594 549.460938 C 561.933594 546.527344 564.332031 544.128906 567.261719 544.128906 L 597.285156 544.128906 C 600.214844 544.128906 602.613281 546.527344 602.613281 549.460938 L 602.613281 578.101562 L 639.847656 578.101562 Z M 639.847656 499.898438 "/>
<path fill-rule="nonzero" fill="currentColor" fill-opacity="1" d="M 690.300781 562.699219 L 690.300781 549.304688 C 690.300781 546.375 692.699219 543.976562 695.628906 543.976562 L 743.777344 543.976562 L 743.777344 533.882812 L 695.628906 533.882812 C 692.699219 533.882812 690.300781 531.484375 690.300781 528.554688 L 690.300781 515.347656 C 690.300781 512.414062 692.699219 510.015625 695.628906 510.015625 L 750.144531 510.015625 L 750.144531 499.921875 L 653.070312 499.882812 L 653.070312 578.097656 L 750.144531 578.117188 L 750.144531 568.027344 L 695.628906 568.027344 C 692.699219 568.027344 690.300781 565.628906 690.300781 562.699219 "/>
<path fill-rule="nonzero" fill="currentColor" fill-opacity="1" d="M 1206.125 562.679688 L 1206.125 549.304688 C 1206.125 546.375 1208.523438 543.976562 1211.457031 543.976562 L 1259.601562 543.976562 L 1259.601562 533.882812 L 1211.457031 533.882812 C 1208.523438 533.882812 1206.125 531.484375 1206.125 528.554688 L 1206.125 515.347656 C 1206.125 512.414062 1208.523438 510.015625 1211.457031 510.015625 L 1265.96875 510.015625 L 1265.96875 499.921875 L 1168.894531 499.882812 L 1168.894531 578.082031 L 1265.96875 578.101562 L 1265.96875 568.011719 L 1211.457031 568.011719 C 1208.523438 568.011719 1206.125 565.613281 1206.125 562.679688 "/>
<path fill-rule="nonzero" fill="currentColor" fill-opacity="1" d="M 989.695312 549.378906 L 978.703125 549.378906 C 975.773438 549.378906 974.574219 547.300781 976.039062 544.761719 L 992.359375 516.492188 C 993.824219 513.953125 995.023438 514.273438 995.023438 517.207031 L 995.023438 544.046875 C 995.023438 546.980469 992.625 549.378906 989.695312 549.378906 M 958.921875 499.886719 L 913.785156 578.101562 L 956.832031 578.101562 L 964.882812 564.085938 C 966.347656 561.546875 969.183594 559.46875 972.875 559.46875 L 989.695312 559.46875 C 992.625 559.46875 995.023438 561.867188 995.023438 564.800781 L 995.023438 578.101562 L 1032.257812 578.101562 L 1032.257812 499.886719 Z M 958.921875 499.886719 "/>
<path fill-rule="nonzero" fill="currentColor" fill-opacity="1" d="M 1477.625 549.378906 L 1466.632812 549.378906 C 1463.699219 549.378906 1462.503906 547.300781 1463.96875 544.761719 L 1480.289062 516.492188 C 1481.753906 513.953125 1482.953125 514.273438 1482.953125 517.207031 L 1482.953125 544.046875 C 1482.953125 546.980469 1480.554688 549.378906 1477.625 549.378906 M 1446.851562 499.886719 L 1401.714844 578.101562 L 1444.761719 578.101562 L 1452.8125 564.085938 C 1454.277344 561.546875 1457.113281 559.46875 1460.804688 559.46875 L 1477.625 559.46875 C 1480.554688 559.46875 1482.953125 561.867188 1482.953125 564.800781 L 1482.953125 578.101562 L 1520.1875 578.101562 L 1520.1875 499.886719 Z M 1446.851562 499.886719 "/>
<path fill-rule="nonzero" fill="currentColor" fill-opacity="1" d="M 1357.90625 560.347656 C 1357.90625 563.28125 1356.707031 563.601562 1355.238281 561.0625 L 1322.644531 504.539062 C 1321.179688 502 1317.582031 499.921875 1314.648438 499.914062 L 1276.550781 499.886719 L 1276.550781 578.101562 L 1313.78125 578.101562 L 1313.78125 517.113281 C 1313.78125 514.179688 1314.980469 513.859375 1316.445312 516.398438 L 1349.367188 573.484375 C 1350.832031 576.023438 1354.429688 578.101562 1357.363281 578.101562 L 1395.136719 578.101562 L 1395.136719 499.886719 L 1357.90625 499.886719 Z M 1357.90625 560.347656 "/>
<path fill-rule="nonzero" fill="currentColor" fill-opacity="1" d="M 1139.804688 547.828125 C 1138.050781 545.480469 1138.023438 541.621094 1139.75 539.25 L 1151.019531 523.75 C 1152.746094 521.378906 1152.746094 517.5 1151.019531 515.128906 L 1143.160156 504.320312 C 1141.433594 501.949219 1138.242188 499.996094 1134.695312 499.996094 L 1046.074219 499.882812 L 1046.074219 578.09375 L 1083.304688 578.09375 L 1083.304688 515.371094 C 1083.304688 512.4375 1085.703125 510.039062 1088.636719 510.039062 L 1109.632812 510.039062 C 1112.566406 510.039062 1113.554688 511.980469 1111.828125 514.351562 L 1093.5 539.558594 C 1091.773438 541.929688 1091.800781 545.789062 1093.554688 548.136719 L 1115.984375 578.09375 L 1162.46875 578.09375 Z M 1139.804688 547.828125 "/>
<path fill-rule="nonzero" fill="currentColor" fill-opacity="1" d="M 902.617188 516.085938 L 902.617188 561.902344 C 902.617188 568.285156 897.425781 573.476562 891.042969 573.476562 L 778.40625 573.476562 C 772.023438 573.476562 766.832031 568.285156 766.832031 561.902344 L 766.832031 516.085938 C 766.832031 509.703125 772.023438 504.511719 778.40625 504.511719 L 891.042969 504.511719 C 897.425781 504.511719 902.617188 509.703125 902.617188 516.085938 M 890.648438 499.890625 L 778.800781 499.890625 C 771.308594 499.890625 765.214844 505.984375 765.214844 513.476562 L 765.214844 564.511719 C 765.214844 572.003906 771.308594 578.097656 778.800781 578.097656 L 890.648438 578.097656 C 898.140625 578.097656 904.234375 572.003906 904.234375 564.511719 L 904.234375 513.476562 C 904.234375 505.984375 898.140625 499.890625 890.648438 499.890625 "/>
<path fill-rule="nonzero" fill="currentColor" fill-opacity="1" d="M 886.351562 522.179688 L 886.351562 555.808594 C 886.351562 560.6875 882.382812 564.65625 877.503906 564.65625 L 791.945312 564.65625 C 787.066406 564.65625 783.101562 560.6875 783.101562 555.808594 L 783.101562 522.179688 C 783.101562 517.300781 787.066406 513.332031 791.945312 513.332031 L 877.503906 513.332031 C 882.382812 513.332031 886.351562 517.300781 886.351562 522.179688 M 877.109375 508.710938 L 792.339844 508.710938 C 786.351562 508.710938 781.480469 513.582031 781.480469 519.570312 L 781.480469 558.417969 C 781.480469 564.40625 786.351562 569.277344 792.339844 569.277344 L 877.109375 569.277344 C 883.097656 569.277344 887.96875 564.40625 887.96875 558.417969 L 887.96875 519.570312 C 887.96875 513.582031 883.097656 508.710938 877.109375 508.710938 "/>
<path fill-rule="nonzero" fill="currentColor" fill-opacity="1" d="M 870.097656 528.273438 L 870.097656 549.714844 C 870.097656 553.089844 867.351562 555.835938 863.976562 555.835938 L 805.492188 555.835938 C 802.117188 555.835938 799.371094 553.089844 799.371094 549.714844 L 799.371094 528.273438 C 799.371094 524.898438 802.117188 522.152344 805.492188 522.152344 L 863.976562 522.152344 C 867.351562 522.152344 870.097656 524.898438 870.097656 528.273438 M 863.582031 517.53125 L 805.882812 517.53125 C 801.398438 517.53125 797.75 521.179688 797.75 525.664062 L 797.75 552.324219 C 797.75 556.808594 801.398438 560.460938 805.882812 560.460938 L 863.582031 560.460938 C 868.070312 560.460938 871.71875 556.808594 871.71875 552.324219 L 871.71875 525.664062 C 871.71875 521.179688 868.070312 517.53125 863.582031 517.53125 "/>
<path fill-rule="nonzero" fill="currentColor" fill-opacity="1" d="M 850.433594 547.007812 L 819.03125 547.007812 C 817.160156 547.007812 815.636719 545.484375 815.636719 543.609375 L 815.636719 534.375 C 815.636719 532.5 817.160156 530.976562 819.03125 530.976562 L 850.433594 530.976562 C 852.308594 530.976562 853.832031 532.5 853.832031 534.375 L 853.832031 543.609375 C 853.832031 545.484375 852.308594 547.007812 850.433594 547.007812 M 850.042969 526.355469 L 819.425781 526.355469 C 816.441406 526.355469 814.015625 528.785156 814.015625 531.765625 L 814.015625 546.21875 C 814.015625 549.203125 816.441406 551.628906 819.425781 551.628906 L 850.042969 551.628906 C 853.023438 551.628906 855.453125 549.203125 855.453125 546.21875 L 855.453125 531.765625 C 855.453125 528.785156 853.023438 526.355469 850.042969 526.355469 "/>
</svg>
