<?xml version="1.0" encoding="UTF-8"?>
<svg xmlns="http://www.w3.org/2000/svg" xmlns:xlink="http://www.w3.org/1999/xlink" width="960.3" height="207.2" viewBox="482.85 445.38 960.29 207.24">
<path fill-rule="nonzero" fill="currentColor" fill-opacity="1" d="M 819.722656 463.855469 L 819.722656 474.015625 L 849.636719 474.015625 C 852.566406 474.015625 854.964844 476.414062 854.964844 479.34375 L 854.964844 542.066406 L 893.058594 542.066406 L 893.058594 479.34375 C 893.058594 476.414062 895.457031 474.015625 898.386719 474.015625 L 927.886719 474.015625 L 927.886719 463.855469 Z M 819.722656 463.855469 "/>
<path fill-rule="nonzero" fill="currentColor" fill-opacity="1" d="M 1053.757812 463.863281 L 1016.523438 463.863281 L 1016.523438 492.671875 C 1016.523438 495.605469 1014.125 498 1011.195312 498 L 981.171875 498 C 978.242188 498 975.84375 495.605469 975.84375 492.671875 L 975.84375 463.863281 L 938.609375 463.863281 L 938.609375 542.066406 L 975.84375 542.066406 L 975.84375 513.425781 C 975.84375 510.492188 978.242188 508.09375 981.171875 508.09375 L 1011.195312 508.09375 C 1014.125 508.09375 1016.523438 510.492188 1016.523438 513.425781 L 1016.523438 542.066406 L 1053.757812 542.066406 Z M 1053.757812 463.863281 "/>
<path fill-rule="nonzero" fill="currentColor" fill-opacity="1" d="M 1104.210938 526.664062 L 1104.210938 513.273438 C 1104.210938 510.339844 1106.609375 507.941406 1109.542969 507.941406 L 1157.6875 507.941406 L 1157.6875 497.851562 L 1109.542969 497.851562 C 1106.609375 497.851562 1104.210938 495.449219 1104.210938 492.519531 L 1104.210938 479.3125 C 1104.210938 476.378906 1106.609375 473.980469 1109.542969 473.980469 L 1164.054688 473.980469 L 1164.054688 463.886719 L 1066.980469 463.847656 L 1066.980469 542.066406 L 1164.054688 542.082031 L 1164.054688 531.992188 L 1109.542969 531.992188 C 1106.609375 531.992188 1104.210938 529.597656 1104.210938 526.664062 "/>
<path fill-rule="nonzero" fill="currentColor" fill-opacity="1" d="M 1110.617188 618.734375 L 1110.617188 605.359375 C 1110.617188 602.425781 1113.015625 600.027344 1115.949219 600.027344 L 1164.09375 600.027344 L 1164.09375 589.933594 L 1115.949219 589.933594 C 1113.015625 589.933594 1110.617188 587.535156 1110.617188 584.605469 L 1110.617188 571.398438 C 1110.617188 568.464844 1113.015625 566.066406 1115.949219 566.066406 L 1170.460938 566.066406 L 1170.460938 555.972656 L 1073.386719 555.933594 L 1073.386719 634.132812 L 1170.460938 634.152344 L 1170.460938 624.0625 L 1115.949219 624.0625 C 1113.015625 624.0625 1110.617188 621.664062 1110.617188 618.734375 "/>
<path fill-rule="nonzero" fill="currentColor" fill-opacity="1" d="M 894.1875 605.429688 L 883.195312 605.429688 C 880.261719 605.429688 879.0625 603.351562 880.53125 600.8125 L 896.851562 572.542969 C 898.316406 570.003906 899.515625 570.324219 899.515625 573.257812 L 899.515625 600.097656 C 899.515625 603.03125 897.117188 605.429688 894.1875 605.429688 M 863.414062 555.9375 L 818.277344 634.152344 L 861.324219 634.152344 L 869.371094 620.136719 C 870.839844 617.597656 873.675781 615.519531 877.367188 615.519531 L 894.1875 615.519531 C 897.117188 615.519531 899.515625 617.917969 899.515625 620.851562 L 899.515625 634.152344 L 936.75 634.152344 L 936.75 555.9375 Z M 863.414062 555.9375 "/>
<path fill-rule="nonzero" fill="currentColor" fill-opacity="1" d="M 1382.117188 605.429688 L 1371.125 605.429688 C 1368.191406 605.429688 1366.992188 603.351562 1368.460938 600.8125 L 1384.78125 572.542969 C 1386.246094 570.003906 1387.445312 570.324219 1387.445312 573.257812 L 1387.445312 600.097656 C 1387.445312 603.03125 1385.046875 605.429688 1382.117188 605.429688 M 1351.34375 555.9375 L 1306.207031 634.152344 L 1349.253906 634.152344 L 1357.300781 620.136719 C 1358.765625 617.597656 1361.601562 615.519531 1365.296875 615.519531 L 1382.117188 615.519531 C 1385.046875 615.519531 1387.445312 617.917969 1387.445312 620.851562 L 1387.445312 634.152344 L 1424.679688 634.152344 L 1424.679688 555.9375 Z M 1351.34375 555.9375 "/>
<path fill-rule="nonzero" fill="currentColor" fill-opacity="1" d="M 1262.394531 616.398438 C 1262.394531 619.332031 1261.195312 619.652344 1259.730469 617.113281 L 1227.136719 560.589844 C 1225.671875 558.050781 1222.074219 555.972656 1219.140625 555.964844 L 1181.039062 555.9375 L 1181.039062 634.152344 L 1218.273438 634.152344 L 1218.273438 573.164062 C 1218.273438 570.230469 1219.472656 569.910156 1220.9375 572.449219 L 1253.855469 629.535156 C 1255.324219 632.074219 1258.921875 634.152344 1261.851562 634.152344 L 1299.628906 634.152344 L 1299.628906 555.9375 L 1262.394531 555.9375 Z M 1262.394531 616.398438 "/>
<path fill-rule="nonzero" fill="currentColor" fill-opacity="1" d="M 1044.296875 603.878906 C 1042.542969 601.53125 1042.515625 597.671875 1044.238281 595.300781 L 1055.511719 579.800781 C 1057.234375 577.429688 1057.234375 573.550781 1055.511719 571.179688 L 1047.648438 560.371094 C 1045.925781 558 1042.734375 556.046875 1039.183594 556.046875 L 950.566406 555.933594 L 950.566406 634.148438 L 987.796875 634.148438 L 987.796875 571.421875 C 987.796875 568.488281 990.195312 566.089844 993.128906 566.089844 L 1014.125 566.089844 C 1017.058594 566.089844 1018.042969 568.03125 1016.320312 570.402344 L 997.988281 595.609375 C 996.265625 597.980469 996.292969 601.839844 998.046875 604.1875 L 1020.476562 634.148438 L 1066.960938 634.148438 Z M 1044.296875 603.878906 "/>
<path fill-rule="nonzero" fill="currentColor" fill-opacity="1" d="M 800.507812 499.117188 L 800.507812 598.886719 C 800.507812 612.78125 789.203125 624.085938 775.308594 624.085938 L 530.050781 624.085938 C 516.15625 624.085938 504.847656 612.78125 504.847656 598.886719 L 504.847656 499.117188 C 504.847656 485.222656 516.15625 473.917969 530.050781 473.917969 L 775.308594 473.917969 C 789.203125 473.917969 800.507812 485.222656 800.507812 499.117188 M 774.453125 463.855469 L 530.90625 463.855469 C 514.59375 463.855469 501.320312 477.125 501.320312 493.4375 L 501.320312 604.566406 C 501.320312 620.878906 514.59375 634.148438 530.90625 634.148438 L 774.453125 634.148438 C 790.765625 634.148438 804.035156 620.878906 804.035156 604.566406 L 804.035156 493.4375 C 804.035156 477.125 790.765625 463.855469 774.453125 463.855469 "/>
<path fill-rule="nonzero" fill="currentColor" fill-opacity="1" d="M 765.089844 512.386719 L 765.089844 585.617188 C 765.089844 596.242188 756.449219 604.882812 745.824219 604.882812 L 559.535156 604.882812 C 548.910156 604.882812 540.269531 596.242188 540.269531 585.617188 L 540.269531 512.386719 C 540.269531 501.765625 548.910156 493.125 559.535156 493.125 L 745.824219 493.125 C 756.449219 493.125 765.089844 501.765625 765.089844 512.386719 M 744.96875 483.058594 L 560.390625 483.058594 C 547.347656 483.058594 536.742188 493.667969 536.742188 506.707031 L 536.742188 591.296875 C 536.742188 604.335938 547.347656 614.945312 560.390625 614.945312 L 744.96875 614.945312 C 758.007812 614.945312 768.617188 604.335938 768.617188 591.296875 L 768.617188 506.707031 C 768.617188 493.667969 758.007812 483.058594 744.96875 483.058594 "/>
<path fill-rule="nonzero" fill="currentColor" fill-opacity="1" d="M 729.699219 525.660156 L 729.699219 572.347656 C 729.699219 579.699219 723.722656 585.675781 716.371094 585.675781 L 589.027344 585.675781 C 581.675781 585.675781 575.695312 579.699219 575.695312 572.347656 L 575.695312 525.660156 C 575.695312 518.308594 581.675781 512.328125 589.027344 512.328125 L 716.371094 512.328125 C 723.722656 512.328125 729.699219 518.308594 729.699219 525.660156 M 715.515625 502.265625 L 589.882812 502.265625 C 580.113281 502.265625 572.167969 510.210938 572.167969 519.976562 L 572.167969 578.027344 C 572.167969 587.792969 580.113281 595.742188 589.882812 595.742188 L 715.515625 595.742188 C 725.28125 595.742188 733.230469 587.792969 733.230469 578.027344 L 733.230469 519.976562 C 733.230469 510.210938 725.28125 502.265625 715.515625 502.265625 "/>
<path fill-rule="nonzero" fill="currentColor" fill-opacity="1" d="M 686.886719 566.453125 L 618.507812 566.453125 C 614.433594 566.453125 611.113281 563.132812 611.113281 559.054688 L 611.113281 538.941406 C 611.113281 534.863281 614.433594 531.546875 618.507812 531.546875 L 686.886719 531.546875 C 690.964844 531.546875 694.28125 534.863281 694.28125 538.941406 L 694.28125 559.054688 C 694.28125 563.132812 690.964844 566.453125 686.886719 566.453125 M 686.03125 521.484375 L 619.367188 521.484375 C 612.871094 521.484375 607.585938 526.769531 607.585938 533.261719 L 607.585938 564.734375 C 607.585938 571.230469 612.871094 576.515625 619.367188 576.515625 L 686.03125 576.515625 C 692.527344 576.515625 697.808594 571.230469 697.808594 564.734375 L 697.808594 533.261719 C 697.808594 526.769531 692.527344 521.484375 686.03125 521.484375 "/>
</svg>
